<svg width="110" height="48" viewBox="0 0 110 48" fill="none" xmlns="http://www.w3.org/2000/svg">
<path fill-rule="evenodd" clip-rule="evenodd" d="M43.6 33.612V18.012C43.6 17.4789 43.8118 16.9677 44.1887 16.5907C44.5657 16.2138 45.0769 16.002 45.61 16.002C46.1431 16.002 46.6543 16.2138 47.0313 16.5907C47.4082 16.9677 47.62 17.4789 47.62 18.012V33.612C47.62 34.1451 47.4082 34.6563 47.0313 35.0333C46.6543 35.4102 46.1431 35.622 45.61 35.622C45.0769 35.622 44.5657 35.4102 44.1887 35.0333C43.8118 34.6563 43.6 34.1451 43.6 33.612ZM62.8 34.064C61.56 35.12 59.948 35.784 57.884 35.784C53.628 35.784 50.48 32.792 50.48 28.456V28.404C50.48 24.356 53.36 21.024 57.488 21.024C62.22 21.024 64.312 24.912 64.312 27.848C64.312 29.012 63.492 29.78 62.432 29.78H54.472C54.872 31.604 56.14 32.556 57.936 32.556C58.9675 32.5657 59.9726 32.2306 60.792 31.604C61.084 31.392 61.352 31.284 61.772 31.284C62.672 31.284 63.332 31.976 63.332 32.872C63.332 33.404 63.092 33.8 62.804 34.064H62.8ZM54.42 27.264H60.476C60.236 25.468 59.18 24.252 57.488 24.252C55.82 24.252 54.736 25.44 54.42 27.268V27.264ZM74.972 34.012C74.524 35.04 73.78 35.756 72.696 35.756H72.488C71.4 35.756 70.66 35.068 70.208 34.012L65.88 23.988C65.7481 23.6776 65.6762 23.3451 65.668 23.008C65.668 22.056 66.54 21.128 67.624 21.128C68.708 21.128 69.288 21.74 69.584 22.56L72.624 30.784L75.716 22.504C75.98 21.82 76.536 21.132 77.596 21.132C77.8481 21.1287 78.0983 21.1755 78.3322 21.2697C78.566 21.3639 78.7788 21.5037 78.9582 21.6808C79.1376 21.858 79.2799 22.069 79.3771 22.3016C79.4742 22.5343 79.5242 22.7839 79.524 23.036C79.524 23.38 79.392 23.8 79.312 23.988L74.976 34.012H74.972ZM93.092 34.064C91.852 35.12 90.236 35.784 88.172 35.784C83.916 35.784 80.768 32.792 80.768 28.456V28.404C80.768 24.356 83.648 21.024 87.776 21.024C92.508 21.024 94.6 24.912 94.6 27.848C94.6 29.012 93.78 29.78 92.72 29.78H84.76C85.16 31.604 86.428 32.556 88.224 32.556C89.2555 32.5657 90.2606 32.2306 91.08 31.604C91.372 31.392 91.64 31.284 92.06 31.284C92.96 31.284 93.62 31.976 93.62 32.872C93.62 33.404 93.38 33.8 93.092 34.064ZM84.708 27.264H90.764C90.524 25.468 89.468 24.252 87.776 24.252C86.108 24.252 85.024 25.44 84.708 27.268V27.264ZM97.616 33.612V18.012C97.616 17.4789 97.8278 16.9677 98.2047 16.5907C98.5817 16.2138 99.0929 16.002 99.626 16.002C100.159 16.002 100.67 16.2138 101.047 16.5907C101.424 16.9677 101.636 17.4789 101.636 18.012V33.612C101.636 34.1451 101.424 34.6563 101.047 35.0333C100.67 35.4102 100.159 35.622 99.626 35.622C99.0929 35.622 98.5817 35.4102 98.2047 35.0333C97.8278 34.6563 97.616 34.1451 97.616 33.612ZM12.2 16H28.2C28.7304 16 29.2391 16.2107 29.6142 16.5858C29.9893 16.9609 30.2 17.4696 30.2 18C30.2 18.5304 29.9893 19.0391 29.6142 19.4142C29.2391 19.7893 28.7304 20 28.2 20H12.2C11.6696 20 11.1609 19.7893 10.7858 19.4142C10.4107 19.0391 10.2 18.5304 10.2 18C10.2 17.4696 10.4107 16.9609 10.7858 16.5858C11.1609 16.2107 11.6696 16 12.2 16ZM18 24H34C34.5304 24 35.0391 24.2107 35.4142 24.5858C35.7893 24.9609 36 25.4696 36 26C36 26.5304 35.7893 27.0391 35.4142 27.4142C35.0391 27.7893 34.5304 28 34 28H18C17.4696 28 16.9609 27.7893 16.5858 27.4142C16.2107 27.0391 16 26.5304 16 26C16 25.4696 16.2107 24.9609 16.5858 24.5858C16.9609 24.2107 17.4696 24 18 24ZM8 32H24C24.5304 32 25.0391 32.2107 25.4142 32.5858C25.7893 32.9609 26 33.4696 26 34C26 34.5304 25.7893 35.0391 25.4142 35.4142C25.0391 35.7893 24.5304 36 24 36H8C7.46957 36 6.96086 35.7893 6.58579 35.4142C6.21071 35.0391 6 34.5304 6 34C6 33.4696 6.21071 32.9609 6.58579 32.5858C6.96086 32.2107 7.46957 32 8 32Z" fill="#A5B4FC"/>
</svg>
