<svg width="121" height="23" viewBox="0 0 121 23" fill="none" xmlns="http://www.w3.org/2000/svg">
<path d="M47.5842 6.47024V17.0002H45.0192V10.6852L42.6642 17.0002H40.5942L38.2242 10.6702V17.0002H35.6592V6.47024H38.6892L41.6442 13.7602L44.5692 6.47024H47.5842ZM57.9788 8.63024L52.7288 20.9752H49.9688L51.8888 16.7152L48.4838 8.63024H51.3488L53.2838 13.8652L55.2038 8.63024H57.9788ZM68.64 15.1402H64.71L64.08 17.0002H61.395L65.205 6.47024H68.175L71.985 17.0002H69.27L68.64 15.1402ZM67.98 13.1602L66.675 9.30524L65.385 13.1602H67.98ZM76.3246 8.51024C76.9146 8.51024 77.4296 8.63024 77.8696 8.87024C78.3196 9.11024 78.6646 9.42524 78.9046 9.81524V8.63024H81.4696V16.9852C81.4696 17.7552 81.3146 18.4502 81.0046 19.0702C80.7046 19.7002 80.2396 20.2002 79.6096 20.5702C78.9896 20.9402 78.2146 21.1252 77.2846 21.1252C76.0446 21.1252 75.0396 20.8302 74.2696 20.2402C73.4996 19.6602 73.0596 18.8702 72.9496 17.8702H75.4846C75.5646 18.1902 75.7546 18.4402 76.0546 18.6202C76.3546 18.8102 76.7246 18.9052 77.1646 18.9052C77.6946 18.9052 78.1146 18.7502 78.4246 18.4402C78.7446 18.1402 78.9046 17.6552 78.9046 16.9852V15.8002C78.6546 16.1902 78.3096 16.5102 77.8696 16.7602C77.4296 17.0002 76.9146 17.1202 76.3246 17.1202C75.6346 17.1202 75.0096 16.9452 74.4496 16.5952C73.8896 16.2352 73.4446 15.7302 73.1146 15.0802C72.7946 14.4202 72.6346 13.6602 72.6346 12.8002C72.6346 11.9402 72.7946 11.1852 73.1146 10.5352C73.4446 9.88524 73.8896 9.38524 74.4496 9.03524C75.0096 8.68524 75.6346 8.51024 76.3246 8.51024ZM78.9046 12.8152C78.9046 12.1752 78.7246 11.6702 78.3646 11.3002C78.0146 10.9302 77.5846 10.7452 77.0746 10.7452C76.5646 10.7452 76.1296 10.9302 75.7696 11.3002C75.4196 11.6602 75.2446 12.1602 75.2446 12.8002C75.2446 13.4402 75.4196 13.9502 75.7696 14.3302C76.1296 14.7002 76.5646 14.8852 77.0746 14.8852C77.5846 14.8852 78.0146 14.7002 78.3646 14.3302C78.7246 13.9602 78.9046 13.4552 78.9046 12.8152ZM91.2153 12.6802C91.2153 12.9202 91.2003 13.1702 91.1703 13.4302H85.3653C85.4053 13.9502 85.5703 14.3502 85.8603 14.6302C86.1603 14.9002 86.5253 15.0352 86.9553 15.0352C87.5953 15.0352 88.0403 14.7652 88.2903 14.2252H91.0203C90.8803 14.7752 90.6253 15.2702 90.2553 15.7102C89.8953 16.1502 89.4403 16.4952 88.8903 16.7452C88.3403 16.9952 87.7253 17.1202 87.0453 17.1202C86.2253 17.1202 85.4953 16.9452 84.8553 16.5952C84.2153 16.2452 83.7153 15.7452 83.3553 15.0952C82.9953 14.4452 82.8153 13.6852 82.8153 12.8152C82.8153 11.9452 82.9903 11.1852 83.3403 10.5352C83.7003 9.88524 84.2003 9.38524 84.8403 9.03524C85.4803 8.68524 86.2153 8.51024 87.0453 8.51024C87.8553 8.51024 88.5753 8.68024 89.2053 9.02024C89.8353 9.36024 90.3253 9.84524 90.6753 10.4752C91.0353 11.1052 91.2153 11.8402 91.2153 12.6802ZM88.5903 12.0052C88.5903 11.5652 88.4403 11.2152 88.1403 10.9552C87.8403 10.6952 87.4653 10.5652 87.0153 10.5652C86.5853 10.5652 86.2203 10.6902 85.9203 10.9402C85.6303 11.1902 85.4503 11.5452 85.3803 12.0052H88.5903ZM97.6684 8.54024C98.6484 8.54024 99.4284 8.86024 100.008 9.50024C100.598 10.1302 100.893 11.0002 100.893 12.1102V17.0002H98.3434V12.4552C98.3434 11.8952 98.1984 11.4602 97.9084 11.1502C97.6184 10.8402 97.2284 10.6852 96.7384 10.6852C96.2484 10.6852 95.8584 10.8402 95.5684 11.1502C95.2784 11.4602 95.1334 11.8952 95.1334 12.4552V17.0002H92.5684V8.63024H95.1334V9.74024C95.3934 9.37024 95.7434 9.08024 96.1834 8.87024C96.6234 8.65024 97.1184 8.54024 97.6684 8.54024ZM102.166 12.8152C102.166 11.9452 102.341 11.1852 102.691 10.5352C103.051 9.88524 103.546 9.38524 104.176 9.03524C104.816 8.68524 105.546 8.51024 106.366 8.51024C107.416 8.51024 108.291 8.78524 108.991 9.33524C109.701 9.88524 110.166 10.6602 110.386 11.6602H107.656C107.426 11.0202 106.981 10.7002 106.321 10.7002C105.851 10.7002 105.476 10.8852 105.196 11.2552C104.916 11.6152 104.776 12.1352 104.776 12.8152C104.776 13.4952 104.916 14.0202 105.196 14.3902C105.476 14.7502 105.851 14.9302 106.321 14.9302C106.981 14.9302 107.426 14.6102 107.656 13.9702H110.386C110.166 14.9502 109.701 15.7202 108.991 16.2802C108.281 16.8402 107.406 17.1202 106.366 17.1202C105.546 17.1202 104.816 16.9452 104.176 16.5952C103.546 16.2452 103.051 15.7452 102.691 15.0952C102.341 14.4452 102.166 13.6852 102.166 12.8152ZM120.308 8.63024L115.058 20.9752H112.298L114.218 16.7152L110.813 8.63024H113.678L115.613 13.8652L117.533 8.63024H120.308Z" fill="#131534"/>
<g clip-path="url(#clip0)">
<path d="M4.13071 15.633C4.13071 15.633 3.05043 5.41423 12.9645 7.03465C22.8786 8.65544 23.3551 4.08598 22.8786 1.32169C22.8786 1.32169 21.2266 5.28452 14.7442 1.2491C8.81052 -2.44565 -1.96964 1.9768 4.06748 15.633H4.13071Z" fill="url(#paint0_linear)"/>
<path d="M14.7442 1.26491C9.40312 -2.06037 0.138799 1.09027 2.74246 11.8083C2.81468 8.93144 3.88707 2.28588 12.4226 3.68133C18.1826 4.62255 21.0253 3.64826 22.346 2.07638C21.4522 2.9899 19.2838 4.09067 14.7442 1.26491Z" fill="url(#paint1_linear)"/>
<path d="M18.8686 7.36743C18.8686 7.36743 19.9497 17.5862 10.0356 15.9658C0.12146 14.345 -0.355035 18.9145 0.12146 21.6788C0.12146 21.6788 1.7735 17.716 8.25518 21.7514C14.1896 25.4462 24.9694 21.0237 18.9322 7.36743H18.8686V7.36743Z" fill="url(#paint2_linear)"/>
<path d="M8.2552 21.7356C13.5966 25.0609 22.8617 21.9099 20.2576 11.1919C20.1854 14.0687 19.1126 20.7143 10.5775 19.3188C4.81704 18.378 1.97509 19.3523 0.654053 20.9241C1.54782 20.0106 3.71628 18.9098 8.2552 21.7356Z" fill="url(#paint3_linear)"/>
</g>
<defs>
<linearGradient id="paint0_linear" x1="20.4991" y1="-0.936248" x2="2.75302" y2="13.273" gradientUnits="userSpaceOnUse">
<stop offset="0.012" stop-color="#ED6B73"/>
<stop offset="0.519" stop-color="#FF979D"/>
<stop offset="1" stop-color="#F4E6E9"/>
</linearGradient>
<linearGradient id="paint1_linear" x1="12.6195" y1="0.974091" x2="11.1896" y2="19.9444" gradientUnits="userSpaceOnUse">
<stop offset="0.012" stop-color="#F4E6E9"/>
<stop offset="0.519" stop-color="#F68188"/>
<stop offset="1" stop-color="#ED6B73"/>
</linearGradient>
<linearGradient id="paint2_linear" x1="-6.82011" y1="33.6739" x2="20.2469" y2="9.72841" gradientUnits="userSpaceOnUse">
<stop stop-color="#728FEF"/>
<stop offset="0.519" stop-color="#6483EC"/>
<stop offset="0.999" stop-color="#064093"/>
<stop offset="1" stop-color="#4268E7"/>
</linearGradient>
<linearGradient id="paint3_linear" x1="10.3808" y1="22.028" x2="11.8094" y2="3.05919" gradientUnits="userSpaceOnUse">
<stop stop-color="#4268E7"/>
<stop offset="0.519" stop-color="#6483EC"/>
<stop offset="0.999" stop-color="#064093"/>
<stop offset="1" stop-color="#708DEF"/>
</linearGradient>
<clipPath id="clip0">
<rect width="23" height="23" fill="white" transform="translate(0 0.000244141)"/>
</clipPath>
</defs>
</svg>
